<?xml version="1.0" encoding="utf-8"?><svg viewBox="0 0 100 100" xmlns="http://www.w3.org/2000/svg" data-darkreader-inline-bgcolor="" data-darkreader-inline-bgimage="" width="128px" height="128px" xmlns:xlink="http://www.w3.org/1999/xlink" style="width:100%;height:100%;background-color:rgb(255, 255, 255);animation-play-state:paused" ><g class="ldl-scale" style="transform-origin:50% 50% 0px;transform:rotate(0deg) scale(0.8);animation-play-state:paused" ><path stroke-miterlimit="10" stroke-width="3" stroke="#333" fill="#abbd81" d="M88.8 56.2c-4.4-2.2-16.5-7.3-27.4-3.5-6 2.1-10.6 6.5-13.9 10.8V39.3c5.1.6 14.5.8 21-4.5 7.3-6 8.5-17.2 8.7-21.5 0-1-.7-1.9-1.6-2-4.2-.7-15.5-1.8-22.8 4.2-3.8 3.1-5.9 7.6-7.2 11.8h-2.7c-2 0-3.6 1.6-3.6 3.6v0c-1.5-3.1-3.6-6.2-6.6-8.5-7.2-5.4-17.5-4.4-21.4-3.8-.9.1-1.5.9-1.4 1.8.5 3.9 2.4 14.1 9.7 19.5 6.3 4.7 15 4.6 19.7 4v14.5c-1.3-2.8-3.1-5.6-5.8-7.6-6.2-4.6-15-3.9-18.3-3.4-.7.1-1.3.8-1.2 1.5.4 3.3 2.2 11.9 8.4 16.6 5.5 4.1 12.9 4 16.9 3.5v19.9h8.2V77.1c5.8 2.2 14.7 4.4 22.9 1.6C81.3 74.9 87.7 63.4 89.8 59c.5-1.1.1-2.2-1-2.8z" data-darkreader-inline-fill="" data-darkreader-inline-stroke="" style="stroke:rgb(51, 51, 51);fill:rgb(171, 189, 129);animation-play-state:paused" ></path>
<circle stroke-miterlimit="10" stroke-width="3" stroke="#333" fill="#e15b64" r="9.4" cy="25.5" cx="44.3" data-darkreader-inline-fill="" data-darkreader-inline-stroke="" style="stroke:rgb(51, 51, 51);fill:rgb(225, 91, 100);animation-play-state:paused" ></circle>
<circle stroke-miterlimit="10" stroke-width="3" stroke="#333" fill="#e15b64" r="6.6" cy="63.1" cx="51.2" data-darkreader-inline-fill="" data-darkreader-inline-stroke="" style="stroke:rgb(51, 51, 51);fill:rgb(225, 91, 100);animation-play-state:paused" ></circle>
<circle stroke-miterlimit="10" stroke-width="3" stroke="#333" fill="#e15b64" r="4.7" cy="50" cx="39.6" data-darkreader-inline-fill="" data-darkreader-inline-stroke="" style="stroke:rgb(51, 51, 51);fill:rgb(225, 91, 100);animation-play-state:paused" ></circle>
<metadata xmlns:d="https://loading.io/stock/" style="animation-play-state:paused" ><d:name style="animation-play-state:paused" >plant</d:name>


<d:tags style="animation-play-state:paused" >plant,fruit,blossom,fertile,fructify,prolific,plentiful,seed,bud</d:tags>


<d:license style="animation-play-state:paused" >by</d:license>


<d:slug style="animation-play-state:paused" >flzhgz</d:slug></metadata></g><!-- generated by https://loading.io/ --></svg>